<svg xmlns="http://www.w3.org/2000/svg" viewBox="0 0 40 50" x="0px" y="0px"><path d="m0,39c0,.55.45,1,1,1h38c.55,0,1-.45,1-1v-2c0-.46-.31-.86-.76-.97,0,0-4.16-1.03-6.24-1.03-1.08,0-2.16.26-3.23.53-.92.23-1.84.47-2.77.47-2.17,0-5-1-7-1s-4.83,1-7,1c-.93,0-1.85-.24-2.77-.47-1.08-.27-2.15-.53-3.23-.53-2.08,0-6.24,1.03-6.24,1.03-.45.11-.76.51-.76.97v2h0Zm1-5.03c.92-.22,4.22-.97,6-.97,1.08,0,2.16.26,3.23.53.92.23,1.84.47,2.77.47,2.17,0,5-1,7-1s4.83,1,7,1c.93,0,1.85-.24,2.77-.47,1.08-.27,2.15-.53,3.23-.53,1.8,0,5.17.77,6.03.98-.06-.68-.28-1.21-.6-1.64-.41-.55-1.01-.94-1.76-1.19-.18-.31-.37-.59-.58-.83l2.61-2.61c.39-.39.39-1.02,0-1.42-.39-.39-1.02-.39-1.42,0l-1.29,1.29v-2.59c0-.55-.45-1-1-1s-1,.45-1,1v2l-1.2-1.6c-.33-.44-.96-.53-1.4-.2-.44.33-.53.96-.2,1.4l1.53,2.05c-.81-.05-1.68.05-2.59.28-.05-.03-.1-.06-.15-.08v-8.84h.46c.67,0,1.32-.27,1.8-.75.35-.35.58-.78.69-1.25h.52c.67,0,1.32-.27,1.8-.75.48-.48.75-1.12.75-1.8v-1.57c.62-.14,1.15-.42,1.58-.8.83-.75,1.35-1.98,1.41-3.74.19-.27.49-.71.69-1.15.2-.41.31-.84.31-1.19,0-1.85-1.31-3.05-2.06-3.58-.17-1.11-.9-3.42-3.94-3.42-2.24,0-3.56.93-4.26,1.67-1.94-1.03-3.74-.83-5.46.03-.69-.74-2.01-1.7-4.28-1.7s-3.59.96-4.28,1.7c-1.72-.86-3.52-1.05-5.46-.03-.69-.74-2.02-1.67-4.26-1.67-3.04,0-3.77,2.31-3.94,3.42-.74.53-2.06,1.73-2.06,3.58,0,.35.12.77.31,1.19.21.44.5.88.69,1.15.06,1.76.58,3,1.41,3.74.43.39.96.66,1.58.8v1.57c0,.67.27,1.32.75,1.8.48.48,1.12.75,1.8.75h.52c.1.47.34.91.69,1.25.48.48,1.12.75,1.8.75h.46v9.13c-.36.15-.72.36-1.09.64-.32-.16-.63-.27-.94-.33l.74-.74c.39-.39.39-1.02,0-1.42-.39-.39-1.02-.39-1.42,0l-1.29,1.29v-1.59c0-.55-.45-1-1-1s-1,.45-1,1v2.59l-1.29-1.29c-.39-.39-1.02-.39-1.42,0-.39.39-.39,1.02,0,1.42l1.81,1.8c-.88.38-1.42.89-1.74,1.44-.18.32-.3.66-.36,1.02h0ZM21,15.53c-.34-.11-.67-.24-1-.4-.33.16-.66.29-1,.4v2.93c0,.67-.27,1.32-.75,1.8-.48.48-1.12.75-1.8.75h-1.46v8.74s.09.03.14.04c.57.18,1.07.54,1.45,1.15.7-.06,1.35-.05,1.96.02.06-.08.13-.15.19-.23l-1.64-3.28c-.25-.49-.05-1.1.45-1.34.49-.25,1.1-.05,1.34.45l1.11,2.21,1.11-2.21c.25-.49.85-.69,1.34-.45.49.25.69.85.45,1.34l-.65,1.31c.75-.11,1.6-.07,2.57.16.06-.04.13-.08.19-.12v-7.8h-1.46c-.67,0-1.32-.27-1.8-.75-.48-.48-.75-1.12-.75-1.8v-2.93h0Zm4-.02c-.67.21-1.34.32-2,.32v2.63c0,.14.06.28.16.38.1.1.24.16.38.16h1.46v-3.49h0Zm-10,0v3.49h1.46c.14,0,.28-.06.38-.16.1-.1.16-.24.16-.38v-2.63c-.66,0-1.33-.11-2-.32h0Zm-5-.18c-.33.06-.67.1-1,.11v2.02c0,.14.06.28.16.38.1.1.24.16.38.16h.46v-2.67h0Zm20,0v2.67h.46c.14,0,.28-.06.38-.16.1-.1.16-.24.16-.38v-2.02c-.33,0-.67-.05-1-.11h0Zm-24-.54v.67c0,.14.06.28.16.38.1.1.24.16.38.16h.46v-.83c-.33-.1-.67-.23-1-.39h0Zm28,0c-.33.16-.67.29-1,.39v.83h.46c.14,0,.28-.06.38-.16s.16-.24.16-.38v-.67h0ZM7.2,8.6c.62.82,1.34,1.27,2.09,1.32.49.03,1.04-.09,1.61-.49.61.48,1.39.67,2.12.52.73-.15,1.43-.61,1.88-1.51.25-.49.04-1.1-.45-1.34s-1.1-.04-1.34.45c-.12.24-.28.4-.48.44-.29.06-.58-.13-.73-.44-.15-.3-.44-.5-.76-.54-.33-.04-.66.08-.88.33-.33.37-.56.61-.83.59-.25-.02-.42-.26-.63-.53-.33-.44-.96-.53-1.4-.19-.44.33-.53.96-.19,1.4h0Zm20,0c.62.82,1.34,1.27,2.09,1.32.49.03,1.04-.09,1.61-.49.61.48,1.39.67,2.12.52.73-.15,1.43-.61,1.88-1.51.25-.49.04-1.1-.45-1.34-.49-.25-1.1-.04-1.34.45-.12.24-.28.4-.48.44-.29.06-.58-.13-.73-.44-.15-.3-.44-.5-.76-.54s-.66.08-.88.33c-.33.37-.56.61-.83.59-.25-.02-.42-.26-.63-.53-.33-.44-.96-.53-1.4-.19-.44.33-.53.96-.19,1.4h0Zm-7.76-1.78c.98.66,2.09.92,3.44.35.35.22.71.32,1.06.33.57.02,1.18-.2,1.78-.82.38-.4.37-1.03-.02-1.41-.4-.38-1.03-.37-1.41.02-.1.11-.18.19-.28.21-.04,0-.06-.03-.1-.05-.06-.04-.13-.1-.19-.16-.32-.32-.82-.39-1.21-.16-.78.45-1.4.4-1.94.04-.46-.31-1.08-.19-1.39.27-.31.46-.19,1.08.27,1.39h0Z" fill-rule="evenodd"/></svg>