<svg xmlns="http://www.w3.org/2000/svg" xmlns:xlink="http://www.w3.org/1999/xlink" viewBox="0 0 68 56.25" version="1.1" x="0px" y="0px"><title>sand, dune, desert, hill, dry</title><desc>Created with Sketch.</desc><g stroke="none" stroke-width="1" fill="none" fill-rule="evenodd"><g transform="translate(-656.000000, -310.000000)" fill="#000000" fill-rule="nonzero"><path d="M689.083241,313.410259 C695.215185,318.880063 695.017607,324.844793 688.505181,332.171272 C681.049612,340.558787 681.739057,348.427029 690.13388,355 L658,355 C656.895431,355 656,354.104569 656,353 L656,331 C656,329.864074 656.944918,328.956197 658.079936,329.001598 C672.991389,329.598056 683.213222,324.432485 689.083241,313.410259 L689.083241,313.410259 Z M691.370071,310.101718 C691.569952,310.035358 691.782173,310 692,310 C705.922284,310 716.516062,314.590637 723.585248,323.780578 C723.854184,324.130196 724,324.558912 724,325 L724,353 C724,354.104569 723.104569,355 722,355 L697.498993,355 C686.283061,348.96385 684.52506,342.669706 691.494819,334.828728 C699.594996,325.716028 699.548153,317.162977 691.370071,310.101718 Z"/></g></g></svg>