<svg xmlns="http://www.w3.org/2000/svg" version="1.1" viewBox="-5.0 -10.0 110.0 135.0">
 <path d="m79.844 68.805-18.621-38.98c-0.25391-0.53516-0.78516-0.88281-1.375-0.90234-0.59375-0.019531-1.1445 0.28516-1.4375 0.80078l-10.312 18.043-9.2812-6.457c-0.35938-0.25-0.80859-0.33984-1.2383-0.25s-0.80078 0.35547-1.0273 0.73047l-16.32 26.875c-0.29688 0.48828-0.30859 1.1055-0.023438 1.6055 0.28125 0.5 0.8125 0.8125 1.3867 0.8125h56.816c0.54688 0 1.0547-0.27734 1.3438-0.74219 0.29297-0.46094 0.32422-1.043 0.089844-1.5352zm-30.879-17.191c0.4375-0.097656 0.80859-0.375 1.0312-0.76172l9.668-16.914 9.0625 18.969-7.0586-2.4453-6.3164 8.7773-16.715-6.2852-7.2656 3.4922 7.0156-11.555 9.3164 6.4805c0.37109 0.25 0.82812 0.33984 1.2617 0.24219z"/>
</svg>