<svg xmlns="http://www.w3.org/2000/svg" version="1.1" viewBox="-5.0 -10.0 110.0 135.0">
 <path d="m63.762 41.07c-2.1133 0.13281-3.7539 1.8828-3.75 4v12.398l-5.0117 2.9414v-26.648c0.003906-1.668-0.66016-3.2695-1.8438-4.4453-1.1836-1.1758-2.7891-1.8281-4.457-1.8164-3.457 0-6.2578 2.8008-6.2578 6.2617v22l-4-2.3203v-11.852c0.023438-1.707-1.2969-3.1289-3-3.2305-0.83984-0.027344-1.6562 0.28906-2.2578 0.87109-0.60547 0.58594-0.94531 1.3906-0.94531 2.2305v12.539c0 1.8555 0.98828 3.5703 2.5898 4.5l7.6094 4.4219v8.6289h0.003906c0 0.51172 0.41406 0.92969 0.92969 0.92969h10.629c0.51172 0 0.92969-0.41797 0.92969-0.92969v-2.1914l9.7188-5.6406c1.9141-1.1055 3.0898-3.1484 3.0898-5.3594v-13.418c0.003907-1.0469-0.42188-2.0469-1.1719-2.7773-0.75-0.73047-1.7617-1.125-2.8047-1.0938z"/>
</svg>