<svg xmlns="http://www.w3.org/2000/svg" version="1.1" viewBox="-5.0 -10.0 110.0 135.0">
 <path d="m98.254 87.152c0.55859 0.55859 0.55859 1.4648 0 2.0234-0.55859 0.55859-1.4648 0.55859-2.0234 0-2.3633-2.3633-5.668-0.9375-9.1328 0.55469-4.75 2.0469-9.7383 4.1953-14.488-0.55469-3.3789-3.3789-7.457-1.6211-11.336 0.050781-4.375 1.8867-8.5508 3.6836-12.285-0.050781-2.3633-2.3633-5.668-0.9375-9.1328 0.55469-4.75 2.0469-9.7383 4.1953-14.488-0.55469-3.3789-3.3789-7.457-1.6211-11.336 0.050781-4.375 1.8867-8.5508 3.6836-12.285-0.050781-0.55859-0.55859-0.55859-1.4648 0-2.0234s1.4648-0.55859 2.0234 0c2.3633 2.3633 5.668 0.9375 9.1328-0.55469 4.75-2.0469 9.7383-4.1953 14.488 0.55469 3.3789 3.3789 7.457 1.6211 11.336-0.050782 4.375-1.8867 8.5508-3.6836 12.285 0.050782 2.3633 2.3633 5.668 0.9375 9.1328-0.55469 4.75-2.0469 9.7383-4.1953 14.488 0.55469 3.3789 3.3789 7.457 1.6211 11.336-0.050782 4.375-1.8867 8.5508-3.6836 12.285 0.050782zm-12.285-19.066c-0.22266 0.097656-0.44531 0.19141-0.67188 0.28906-0.63281 1.2461-1.2344 2.5078-1.8047 3.7852 1.2109-0.41406 2.418-0.93359 3.6055-1.4453 3.4648-1.4922 6.7695-2.918 9.1328-0.55469 0.55859 0.55859 1.4648 0.55859 2.0234 0s0.55859-1.4648 0-2.0234c-3.7344-3.7344-7.9102-1.9336-12.285-0.050781zm0 9.5078c-0.84766 0.36719-1.707 0.73438-2.5625 1.0547-2.5977 0.96484-5.1953 1.4688-7.5312-0.003907-0.42188-0.26562-0.83594-0.59766-1.2422-1-4.75-4.75-9.7383-2.6016-14.488-0.55469-1.418 0.60938-2.8086 1.2109-4.1211 1.543-1.2578 0.32031-2.4414 0.39453-3.5039-0.003906-0.53516-0.19922-1.0391-0.51953-1.5078-0.98828-3.7344-3.7344-7.9102-1.9336-12.285-0.050781-0.82422 0.35547-1.6562 0.71484-2.4883 1.0273-2.6367 0.98828-5.2773 1.5156-7.6484-0.003907-0.40625-0.26172-0.80859-0.58203-1.1992-0.97266-4.75-4.75-9.7383-2.6016-14.488-0.55469-1.3789 0.59375-2.7344 1.1797-4.0156 1.5156-1.3242 0.35547-2.5703 0.4375-3.6797 0.003907-0.50781-0.19922-0.99219-0.51172-1.4375-0.96094-0.55859-0.55859-1.4648-0.55859-2.0234 0-0.55859 0.55859-0.55859 1.4648 0 2.0234 3.7344 3.7344 7.9102 1.9336 12.285 0.050781 0.89453-0.38672 1.8047-0.77734 2.7109-1.1055 2.5156-0.91797 5.0273-1.375 7.3008 0.003907 0.45312 0.27344 0.89453 0.62109 1.3281 1.0547 4.75 4.75 9.7383 2.6016 14.488 0.55469 1.4961-0.64453 2.9688-1.2773 4.3438-1.5977 1.1133-0.25781 2.168-0.3125 3.125 0.003906 0.59375 0.19531 1.1523 0.52734 1.6641 1.0391 3.7344 3.7344 7.9102 1.9336 12.285 0.050781 0.87109-0.375 1.7539-0.75391 2.6367-1.082 2.5586-0.94141 5.1094-1.4219 7.418 0.003906 0.4375 0.26953 0.86719 0.60938 1.2812 1.0273 4.75 4.75 9.7383 2.6016 14.488 0.55469 1.457-0.62891 2.8867-1.2422 4.2305-1.5703 1.1875-0.28906 2.3086-0.35156 3.3203 0.003906 0.5625 0.19531 1.0938 0.52344 1.582 1.0117 0.55859 0.55859 1.4648 0.55859 2.0234 0 0.55859-0.55859 0.55859-1.4648 0-2.0234-3.7383-3.7383-7.9141-1.9375-12.289-0.054688zm-66.191-42.844c-0.10547 4.8789 0.55078 9.8086 1.5508 14.613 0.39062 0.26172 0.77344 0.52734 1.1562 0.80078 0.38281-1.1328 0.80859-2.2344 1.2773-3.3047-0.72656-3.957-1.168-7.9766-1.0742-11.941 1.1016-0.46094 1.918-1.5 2.0312-2.7695 0.19531-2.0938 0.57031-4.1719 1.1719-6.2188 0.58984-2.0039 1.4062-3.9766 2.4922-5.9023 0.61719-1.1055 0.54297-2.4062-0.085937-3.4102 1.4883-2.1406 3.3164-4.1953 5.5469-6.1367 0.59766-0.51953 0.65625-1.4219 0.14062-2.0195-0.51953-0.59766-1.4219-0.65625-2.0195-0.14063-2.4688 2.1484-4.4844 4.4141-6.1211 6.7578-1.293-0.14453-2.6055 0.48047-3.2812 1.6836-1.3281 2.3555-2.332 4.7891-3.0664 7.2852-0.72266 2.4492-1.1719 4.957-1.4062 7.5-0.125 1.3477 0.57812 2.5781 1.6875 3.2031zm5.1094 17.285c1.5312 1.2773 2.9805 2.668 4.3516 4.1406 1.9844-3.0781 4.3359-5.8789 7.125-8.2852 0.46484-4.3828 1.2969-8.3828 2.2539-12.422 0.17578-0.74609-0.66406-1.3125-1.2852-0.87109-5.7148 4.0234-10.012 9.5938-12.445 17.438zm18.957 14.184c-0.26172 1.0625-0.5 2.1289-0.71875 3.1992 2.2227-0.72266 4.2617-0.85938 5.8633 0.74219 3.2422 3.2422 6.8125 2.3125 10.562 0.78125-0.15625-0.96484-0.33203-1.9219-0.52734-2.8789-3.0508 1.2773-5.9062 2.1797-8.0117 0.074219-2.2461-2.2461-4.6562-2.4883-7.168-1.918zm-18.695 6.5c1.5508 0.625 2.9727 1.6055 4.2656 2.8984 0.91797 0.91797 1.8438 1.1992 3.1211 1.0508 1.6523-0.19531 3.5312-1.0469 5.0547-1.7031 0.59766-0.25781 1.207-0.51953 1.8203-0.76953 1.7852-12.781 5.4766-20.773 9.8008-28.781 0.36719-0.67969-0.30469-1.457-1.0312-1.1875-10.395 3.8164-18.375 12.246-23.031 28.492zm-11.117-2.5078c0.50391-0.21484 1.0078-0.43359 1.5156-0.64063-0.4375-0.85547-0.88672-1.6992-1.3516-2.5391-0.43359 0.17969-0.86328 0.36719-1.293 0.55078-3.4648 1.4922-6.7695 2.918-9.1328 0.55469-0.55859-0.55859-1.4648-0.55859-2.0234 0-0.55859 0.55859-0.55859 1.4648 0 2.0234 3.7344 3.7344 7.9102 1.9375 12.285 0.050782zm5.8438 1.7578 0.035156-0.003906c0.84766-0.070313 1.6602-0.054688 2.4453 0.039062 1.3242-4.6562 3.0508-9.1562 5.3398-13.262-7.3125-8.1484-15.309-11.891-23.969-12.676-0.8125-0.074218-1.2891 0.89844-0.72656 1.4961 6.1953 6.5586 11.812 13.25 16.875 24.406zm42.871 0.99219c1.4258-0.49609 2.8906-0.87109 4.4062-0.99609 3.7305-0.30469 6.8711 1.0195 9.5039 3.6562 0.24609 0.24609 0.49609 0.44922 0.75 0.60547-4.1094-18.641-12.156-27.91-22.977-31.887-0.68359-0.25-1.3164 0.47656-0.96875 1.1211 4.1172 7.625 7.625 15.234 9.2852 27.5zm5.1445-60.367c2.1094 1.8359 3.832 3.7773 5.2344 5.8008-0.55078 0.93359-0.60156 2.125-0.035156 3.1367 1.0234 1.8164 1.793 3.6758 2.3477 5.5625 0.57031 1.9297 0.92188 3.8906 1.1055 5.8633 0.10547 1.1641 0.83594 2.125 1.832 2.5742 0.085938 3.6094-0.29688 7.2656-0.9375 10.871 0.47656 1.0547 0.91016 2.1484 1.2969 3.2734 0.37891-0.26953 0.76172-0.53125 1.1484-0.78516 0.91016-4.4492 1.5039-9.0117 1.3984-13.527 0.99609-0.60156 1.6211-1.7344 1.5078-2.9727-0.22266-2.3945-0.64844-4.7578-1.3281-7.0664-0.69141-2.3516-1.6406-4.6484-2.8906-6.8672-0.61328-1.1094-1.8047-1.6953-2.9922-1.6016-1.5508-2.2305-3.4609-4.3789-5.8086-6.4219-0.59766-0.51953-1.5-0.45703-2.0195 0.14062-0.51953 0.59375-0.45703 1.5 0.14062 2.0195zm-2.3477 34.957c2.6445 2.2617 4.875 4.8906 6.7617 7.7852 1.2734-1.3555 2.6094-2.6289 4.0234-3.8047-2.3047-7.3047-6.332-12.5-11.676-16.266-0.58984-0.41406-1.3789 0.12109-1.2148 0.82031 0.89453 3.7344 1.6641 7.4297 2.1055 11.465zm8.3086 10.344c2.6875 4.8086 4.5586 10.195 5.9023 15.73 5.1172-12.445 10.863-19.367 17.258-26.137 0.53125-0.5625 0.082031-1.4805-0.68359-1.4102-8.1172 0.73438-15.617 4.2266-22.477 11.816z"/>
</svg>