<svg xmlns="http://www.w3.org/2000/svg" xmlns:xlink="http://www.w3.org/1999/xlink" version="1.1" x="0px" y="0px" viewBox="0 0 256 320" enable-background="new 0 0 256 256" xml:space="preserve"><path d="M239.63,184.59H73.66c0,0,0,0,0.01-0.01c0.21-0.57,8.58-22.03,27.01-39.86c13.24-12.8,31.65-23.73,55.97-23.73  c25.18,0,44.03,11.72,57.34,25.1c17.47,17.54,25.42,37.93,25.63,38.49C239.63,184.59,239.63,184.59,239.63,184.59z"/><path d="M239.63,141.4v25.29c-3.29-5.66-7.71-12.35-13.38-19.06c-1.13-1.34-2.28-2.64-3.45-3.91  C228.1,142.54,233.71,141.73,239.63,141.4z"/><path d="M54.87,115.54c0,7.54-4.84,11.91-10.45,13.12v-10.92c0-1.82-1.47-3.29-3.29-3.29c-1.81,0-3.28,1.47-3.28,3.29v10.92  c-5.62-1.21-10.45-5.59-10.45-13.12c0-17.97,9.1-32.53,13.73-32.53C45.77,83.01,54.87,97.57,54.87,115.54z"/><path d="M99.37,107.47c0,8.51-5.56,13.38-11.94,14.62V106.8c0-1.82-1.47-3.29-3.29-3.29c-1.81,0-3.28,1.47-3.28,3.29v15.29  c-6.37-1.23-11.94-6.11-11.94-14.62c0-19.92,10.09-36.06,15.22-36.06C89.28,71.41,99.37,87.55,99.37,107.47z"/><path d="M44.42,128.66v22.61c0,1.82-1.47,3.29-3.29,3.29c-1.81,0-3.28-1.47-3.28-3.29v-22.61C40,129.13,42.26,129.13,44.42,128.66z"/><path d="M87.43,122.09v21.88c0,1.82-1.47,3.29-3.29,3.29c-1.81,0-3.28-1.47-3.28-3.29v-21.88  C83.02,122.51,85.28,122.51,87.43,122.09z"/><path d="M44.42,128.66v22.61c0,1.82-1.47,3.29-3.29,3.29c-1.81,0-3.28-1.47-3.28-3.29v-22.61C40,129.13,42.26,129.13,44.42,128.66z"/><path d="M87.43,122.09v21.88c0,1.82-1.47,3.29-3.29,3.29c-1.81,0-3.28-1.47-3.28-3.29v-21.88  C83.02,122.51,85.28,122.51,87.43,122.09z"/><path d="M87.05,147.63c-14.13,16.74-20.59,33.4-20.86,34.1l-1.09,2.85H16.44c0,0-4.35-43.36,54.3-43.36  c6.95,0,13.81,0.61,20.52,1.68C89.83,144.42,88.43,146,87.05,147.63z"/></svg>