<svg xmlns="http://www.w3.org/2000/svg" xmlns:xlink="http://www.w3.org/1999/xlink" version="1.1" x="0px" y="0px" viewBox="0 0 100 125" enable-background="new 0 0 100 100" xml:space="preserve"><path d="M92.116,60.077c1.052-1.474,1.634-3.252,1.634-5.077c0-3.663-2.221-6.864-5.59-8.16c-1.297-3.37-4.498-5.59-8.16-5.59  c-1.013,0-1.984,0.185-2.897,0.502c-0.323-2.101-0.525-3.956-0.649-5.442c1.594,1.528,3.743,2.44,6.046,2.44  c4.825,0,8.75-3.925,8.75-8.75c0-3.042-1.607-5.847-4.134-7.423c1.052-1.474,1.634-3.252,1.634-5.077c0-3.663-2.221-6.864-5.59-8.16  C81.863,5.97,78.662,3.75,75,3.75s-6.863,2.22-8.16,5.59c-3.369,1.296-5.59,4.498-5.59,8.16c0,1.824,0.582,3.603,1.634,5.077  C60.357,24.153,58.75,26.958,58.75,30c0,0.785,0.113,1.542,0.308,2.266c-0.292-0.152-0.585-0.305-0.898-0.426  c-1.297-3.37-4.498-5.59-8.16-5.59s-6.863,2.22-8.16,5.59c-0.313,0.12-0.605,0.274-0.898,0.426c0.195-0.724,0.308-1.481,0.308-2.266  c0-3.042-1.607-5.847-4.134-7.423c1.052-1.474,1.634-3.252,1.634-5.077c0-3.663-2.221-6.864-5.59-8.16  C31.863,5.97,28.662,3.75,25,3.75s-6.863,2.22-8.16,5.59c-3.369,1.296-5.59,4.498-5.59,8.16c0,1.824,0.582,3.603,1.634,5.077  C10.357,24.153,8.75,26.958,8.75,30c0,4.825,3.925,8.75,8.75,8.75c2.303,0,4.452-0.912,6.046-2.44  c-0.124,1.487-0.326,3.341-0.649,5.442C21.984,41.435,21.013,41.25,20,41.25c-3.662,0-6.863,2.22-8.16,5.59  C8.471,48.136,6.25,51.337,6.25,55c0,1.824,0.582,3.603,1.634,5.077C5.357,61.653,3.75,64.458,3.75,67.5  c0,4.825,3.925,8.75,8.75,8.75c2.303,0,4.452-0.912,6.046-2.44c-0.385,4.593-1.495,12.697-4.706,20.726  c-0.154,0.385-0.107,0.822,0.125,1.165c0.232,0.344,0.62,0.549,1.035,0.549h10c0.415,0,0.803-0.206,1.035-0.549  c0.232-0.343,0.279-0.78,0.125-1.165c-3.211-8.029-4.322-16.133-4.706-20.726c1.594,1.528,3.743,2.44,6.046,2.44  c4.825,0,8.75-3.925,8.75-8.75c0-3.042-1.607-5.847-4.134-7.423c1.052-1.474,1.634-3.252,1.634-5.077c0-3.663-2.221-6.864-5.59-8.16  c-0.054-0.141-0.131-0.267-0.191-0.403c-0.874-4.037-1.304-7.609-1.515-10.127c1.594,1.528,3.743,2.44,6.046,2.44  c1.466,0,2.847-0.367,4.062-1.007C36.37,38.468,36.25,39.22,36.25,40c0,1.824,0.582,3.603,1.634,5.077  c-2.526,1.577-4.134,4.381-4.134,7.423c0,4.825,3.925,8.75,8.75,8.75c2.303,0,4.452-0.912,6.046-2.44  c-0.385,4.593-1.495,12.697-4.706,20.726c-0.154,0.385-0.107,0.822,0.125,1.165c0.232,0.344,0.62,0.549,1.035,0.549h10  c0.415,0,0.803-0.206,1.035-0.549c0.232-0.343,0.279-0.78,0.125-1.165c-3.211-8.029-4.322-16.133-4.706-20.726  c1.594,1.528,3.743,2.44,6.046,2.44c4.825,0,8.75-3.925,8.75-8.75c0-3.042-1.607-5.847-4.134-7.423  c1.052-1.474,1.634-3.252,1.634-5.077c0-0.78-0.12-1.532-0.312-2.256c1.215,0.64,2.595,1.006,4.062,1.006  c2.303,0,4.452-0.912,6.046-2.44c-0.211,2.517-0.642,6.089-1.515,10.127c-0.061,0.137-0.137,0.263-0.191,0.403  c-3.369,1.296-5.59,4.498-5.59,8.16c0,1.824,0.582,3.603,1.634,5.077c-2.526,1.577-4.134,4.381-4.134,7.423  c0,4.825,3.925,8.75,8.75,8.75c2.303,0,4.452-0.912,6.046-2.44c-0.385,4.593-1.495,12.697-4.706,20.726  c-0.154,0.385-0.107,0.822,0.125,1.165c0.232,0.344,0.62,0.549,1.035,0.549h10c0.415,0,0.803-0.206,1.035-0.549  c0.232-0.343,0.279-0.78,0.125-1.165c-3.211-8.029-4.322-16.133-4.706-20.726c1.594,1.528,3.743,2.44,6.046,2.44  c4.825,0,8.75-3.925,8.75-8.75C96.25,64.458,94.643,61.653,92.116,60.077z"/></svg>