<svg xmlns="http://www.w3.org/2000/svg" viewBox="0 0 48 60" x="0px" y="0px"><title>grass, nature, plants, green, swamp, grain</title><g data-name="Icon 18"><path d="M42.45,32.85a1.0094,1.0094,0,0,1-1.21.23,42.0133,42.0133,0,0,0-5.67-2.48c-.89,1.38-3.49,7.16-3.65,11.4H38a1,1,0,0,1,0,2H10a1,1,0,0,1,0-2h5.97c-.03-6.05-.97-15.32-3.54-17.19a1.0017,1.0017,0,0,1,.88-1.77c.17.05,2.58.87,4.99,5.33.14-1.23.31-2.54.47-3.48a1.0014,1.0014,0,0,1,1.93-.17l.96,2.66c1.19-6.27,3.46-13.14,7.8-18.04a1.005,1.005,0,0,1,1.34-.15.9935.9935,0,0,1,.27,1.32c-.04.07-3.06,5.36-4.11,17.72,1.6-3.16,3.58-7.6,3.97-10.91a1.0117,1.0117,0,0,1,1.03-.89,1.0015,1.0015,0,0,1,.96.96,51.4634,51.4634,0,0,1-.54,8.43.9016.9016,0,0,0,.1-.09,3.0518,3.0518,0,0,1,2.43-.67c3.36.47,7.19,5.94,7.61,6.56A1.0065,1.0065,0,0,1,42.45,32.85Z"/></g></svg>