<svg xmlns="http://www.w3.org/2000/svg" xmlns:xlink="http://www.w3.org/1999/xlink" version="1.1" x="0px" y="0px" viewBox="0 0 64 80" enable-background="new 0 0 64 64" xml:space="preserve"><g><g><polygon points="38.477,38 25.523,38 32,43.396   "/><polygon points="22,51.73 28.876,46 22,40.27   "/><path d="M56,34v-6c0-0.362-0.099-0.718-0.285-1.029l-6-10c-0.084-0.141-0.185-0.27-0.301-0.385l-8-8    c-0.256-0.256-0.577-0.438-0.929-0.526l-8-2c-0.318-0.079-0.651-0.079-0.97,0l-8,2c-0.352,0.088-0.673,0.27-0.929,0.526l-8,8    c-0.116,0.116-0.217,0.245-0.301,0.385l-6,10C8.099,27.282,8,27.638,8,28v6H56z M24,20c0-1.104,0.896-2,2-2h12    c1.104,0,2,0.896,2,2v8c0,1.104-0.896,2-2,2H26c-1.104,0-2-0.896-2-2V20z"/><path d="M42.72,57.536L32,48.604l-10.72,8.933l-0.006-0.007C20.928,57.818,20.487,58,20,58h24c-0.487,0-0.928-0.182-1.274-0.471    L42.72,57.536z"/><polygon points="42,40.27 35.124,46 42,51.73   "/><rect x="28" y="22" width="8" height="4"/><path d="M46,38v18c0,1.104-0.896,2-2,2h10c1.104,0,2-0.896,2-2V38H46z"/><path d="M18,56V38H8v18c0,1.104,0.896,2,2,2h10C18.896,58,18,57.104,18,56z"/></g></g></svg>